<svg id="visual" viewBox="0 0 960 540" width="960" height="540" xmlns="http://www.w3.org/2000/svg" xmlns:xlink="http://www.w3.org/1999/xlink" version="1.1"><path d="M0 372L22.8 371.5C45.7 371 91.3 370 137 361.8C182.7 353.7 228.3 338.3 274 340.2C319.7 342 365.3 361 411.2 364.7C457 368.3 503 356.7 548.8 352.5C594.7 348.3 640.3 351.7 686 350.5C731.7 349.3 777.3 343.7 823 338.2C868.7 332.7 914.3 327.3 937.2 324.7L960 322L960 541L937.2 541C914.3 541 868.7 541 823 541C777.3 541 731.7 541 686 541C640.3 541 594.7 541 548.8 541C503 541 457 541 411.2 541C365.3 541 319.7 541 274 541C228.3 541 182.7 541 137 541C91.3 541 45.7 541 22.8 541L0 541Z" fill="#2a9d8f"></path><path d="M0 424L22.8 422.5C45.7 421 91.3 418 137 413C182.7 408 228.3 401 274 396.5C319.7 392 365.3 390 411.2 391.7C457 393.3 503 398.7 548.8 397.8C594.7 397 640.3 390 686 388.5C731.7 387 777.3 391 823 397.7C868.7 404.3 914.3 413.7 937.2 418.3L960 423L960 541L937.2 541C914.3 541 868.7 541 823 541C777.3 541 731.7 541 686 541C640.3 541 594.7 541 548.8 541C503 541 457 541 411.2 541C365.3 541 319.7 541 274 541C228.3 541 182.7 541 137 541C91.3 541 45.7 541 22.8 541L0 541Z" fill="#1b8686"></path><path d="M0 453L22.8 447C45.7 441 91.3 429 137 420.8C182.7 412.7 228.3 408.3 274 408.3C319.7 408.3 365.3 412.7 411.2 411.2C457 409.7 503 402.3 548.8 408.8C594.7 415.3 640.3 435.7 686 436.2C731.7 436.7 777.3 417.3 823 416.2C868.7 415 914.3 432 937.2 440.5L960 449L960 541L937.2 541C914.3 541 868.7 541 823 541C777.3 541 731.7 541 686 541C640.3 541 594.7 541 548.8 541C503 541 457 541 411.2 541C365.3 541 319.7 541 274 541C228.3 541 182.7 541 137 541C91.3 541 45.7 541 22.8 541L0 541Z" fill="#1c7079"></path><path d="M0 436L22.8 441.5C45.7 447 91.3 458 137 460.3C182.7 462.7 228.3 456.3 274 456.7C319.7 457 365.3 464 411.2 470.2C457 476.3 503 481.7 548.8 481.7C594.7 481.7 640.3 476.3 686 470.7C731.7 465 777.3 459 823 460.7C868.7 462.3 914.3 471.7 937.2 476.3L960 481L960 541L937.2 541C914.3 541 868.7 541 823 541C777.3 541 731.7 541 686 541C640.3 541 594.7 541 548.8 541C503 541 457 541 411.2 541C365.3 541 319.7 541 274 541C228.3 541 182.7 541 137 541C91.3 541 45.7 541 22.8 541L0 541Z" fill="#235b68"></path><path d="M0 477L22.8 480.5C45.7 484 91.3 491 137 495.8C182.7 500.7 228.3 503.3 274 503.3C319.7 503.3 365.3 500.7 411.2 499.7C457 498.7 503 499.3 548.8 496.2C594.7 493 640.3 486 686 481.8C731.7 477.7 777.3 476.3 823 477.2C868.7 478 914.3 481 937.2 482.5L960 484L960 541L937.2 541C914.3 541 868.7 541 823 541C777.3 541 731.7 541 686 541C640.3 541 594.7 541 548.8 541C503 541 457 541 411.2 541C365.3 541 319.7 541 274 541C228.3 541 182.7 541 137 541C91.3 541 45.7 541 22.8 541L0 541Z" fill="#264653"></path></svg>